<mxfile host="app.diagrams.net" modified="2022-06-19T13:00:46.482Z" agent="5.0 (Windows NT 10.0; Win64; x64) AppleWebKit/537.36 (KHTML, like Gecko) Chrome/102.0.0.0 Safari/537.36" etag="vLUE2aE5S-EOjwbHqAbe" version="20.0.1" type="github">
  <diagram id="C1d3u3oV7PMwIfMLYhfi" name="Page-1">
    <mxGraphModel dx="2966" dy="1563" grid="1" gridSize="10" guides="1" tooltips="1" connect="1" arrows="1" fold="1" page="1" pageScale="1" pageWidth="1169" pageHeight="1654" math="0" shadow="0">
      <root>
        <mxCell id="0" />
        <mxCell id="1" parent="0" />
        <mxCell id="Y9t75XEt5-iBULSz1cMZ-4" value="" style="edgeStyle=orthogonalEdgeStyle;rounded=0;orthogonalLoop=1;jettySize=auto;html=1;fontSize=14;" edge="1" parent="1" source="Y9t75XEt5-iBULSz1cMZ-1" target="Y9t75XEt5-iBULSz1cMZ-3">
          <mxGeometry relative="1" as="geometry" />
        </mxCell>
        <mxCell id="Y9t75XEt5-iBULSz1cMZ-1" value="&lt;font size=&quot;3&quot;&gt;开始&lt;/font&gt;" style="rounded=0;whiteSpace=wrap;html=1;" vertex="1" parent="1">
          <mxGeometry x="330" y="90" width="120" height="40" as="geometry" />
        </mxCell>
        <mxCell id="Y9t75XEt5-iBULSz1cMZ-6" value="" style="edgeStyle=orthogonalEdgeStyle;rounded=0;orthogonalLoop=1;jettySize=auto;html=1;fontSize=14;" edge="1" parent="1" source="Y9t75XEt5-iBULSz1cMZ-3" target="Y9t75XEt5-iBULSz1cMZ-5">
          <mxGeometry relative="1" as="geometry" />
        </mxCell>
        <mxCell id="Y9t75XEt5-iBULSz1cMZ-3" value="系统初始化" style="whiteSpace=wrap;html=1;rounded=0;" vertex="1" parent="1">
          <mxGeometry x="330" y="150" width="120" height="30" as="geometry" />
        </mxCell>
        <mxCell id="Y9t75XEt5-iBULSz1cMZ-8" value="" style="edgeStyle=orthogonalEdgeStyle;rounded=0;orthogonalLoop=1;jettySize=auto;html=1;fontSize=14;" edge="1" parent="1" source="Y9t75XEt5-iBULSz1cMZ-5" target="Y9t75XEt5-iBULSz1cMZ-7">
          <mxGeometry relative="1" as="geometry" />
        </mxCell>
        <mxCell id="Y9t75XEt5-iBULSz1cMZ-5" value="检测距离" style="whiteSpace=wrap;html=1;rounded=0;" vertex="1" parent="1">
          <mxGeometry x="330" y="200" width="120" height="30" as="geometry" />
        </mxCell>
        <mxCell id="Y9t75XEt5-iBULSz1cMZ-10" value="" style="edgeStyle=orthogonalEdgeStyle;rounded=0;orthogonalLoop=1;jettySize=auto;html=1;fontSize=14;startArrow=none;" edge="1" parent="1" source="Y9t75XEt5-iBULSz1cMZ-11" target="Y9t75XEt5-iBULSz1cMZ-9">
          <mxGeometry relative="1" as="geometry" />
        </mxCell>
        <mxCell id="Y9t75XEt5-iBULSz1cMZ-7" value="距离是否达安全值" style="rhombus;whiteSpace=wrap;html=1;rounded=0;" vertex="1" parent="1">
          <mxGeometry x="315" y="250" width="150" height="60" as="geometry" />
        </mxCell>
        <mxCell id="Y9t75XEt5-iBULSz1cMZ-14" value="" style="edgeStyle=orthogonalEdgeStyle;rounded=0;orthogonalLoop=1;jettySize=auto;html=1;fontSize=14;" edge="1" parent="1" source="Y9t75XEt5-iBULSz1cMZ-9" target="Y9t75XEt5-iBULSz1cMZ-13">
          <mxGeometry relative="1" as="geometry" />
        </mxCell>
        <mxCell id="Y9t75XEt5-iBULSz1cMZ-48" style="edgeStyle=orthogonalEdgeStyle;rounded=0;orthogonalLoop=1;jettySize=auto;html=1;exitX=1;exitY=0.5;exitDx=0;exitDy=0;fontSize=14;" edge="1" parent="1" source="Y9t75XEt5-iBULSz1cMZ-9">
          <mxGeometry relative="1" as="geometry">
            <mxPoint x="560" y="375" as="targetPoint" />
          </mxGeometry>
        </mxCell>
        <mxCell id="Y9t75XEt5-iBULSz1cMZ-9" value="距离是否达安全值" style="rhombus;whiteSpace=wrap;html=1;rounded=0;" vertex="1" parent="1">
          <mxGeometry x="315" y="340" width="150" height="70" as="geometry" />
        </mxCell>
        <mxCell id="Y9t75XEt5-iBULSz1cMZ-11" value="报警" style="text;html=1;strokeColor=none;fillColor=none;align=center;verticalAlign=middle;whiteSpace=wrap;rounded=0;fontSize=14;" vertex="1" parent="1">
          <mxGeometry x="360" y="310" width="60" height="30" as="geometry" />
        </mxCell>
        <mxCell id="Y9t75XEt5-iBULSz1cMZ-12" value="" style="edgeStyle=orthogonalEdgeStyle;rounded=0;orthogonalLoop=1;jettySize=auto;html=1;fontSize=14;endArrow=none;" edge="1" parent="1" source="Y9t75XEt5-iBULSz1cMZ-7" target="Y9t75XEt5-iBULSz1cMZ-11">
          <mxGeometry relative="1" as="geometry">
            <mxPoint x="390" y="310" as="sourcePoint" />
            <mxPoint x="390" y="370" as="targetPoint" />
            <Array as="points">
              <mxPoint x="390" y="310" />
              <mxPoint x="390" y="310" />
            </Array>
          </mxGeometry>
        </mxCell>
        <mxCell id="Y9t75XEt5-iBULSz1cMZ-18" style="edgeStyle=orthogonalEdgeStyle;rounded=0;orthogonalLoop=1;jettySize=auto;html=1;entryX=0.5;entryY=0;entryDx=0;entryDy=0;fontSize=14;" edge="1" parent="1" source="Y9t75XEt5-iBULSz1cMZ-13" target="Y9t75XEt5-iBULSz1cMZ-17">
          <mxGeometry relative="1" as="geometry" />
        </mxCell>
        <mxCell id="Y9t75XEt5-iBULSz1cMZ-52" style="edgeStyle=orthogonalEdgeStyle;rounded=0;orthogonalLoop=1;jettySize=auto;html=1;fontSize=14;" edge="1" parent="1" source="Y9t75XEt5-iBULSz1cMZ-13">
          <mxGeometry relative="1" as="geometry">
            <mxPoint x="230.0000000000001" y="437.4999999999999" as="targetPoint" />
          </mxGeometry>
        </mxCell>
        <mxCell id="Y9t75XEt5-iBULSz1cMZ-13" value="节气门开度控制装置打开" style="whiteSpace=wrap;html=1;rounded=0;" vertex="1" parent="1">
          <mxGeometry x="305" y="420" width="170" height="35" as="geometry" />
        </mxCell>
        <mxCell id="Y9t75XEt5-iBULSz1cMZ-20" value="" style="edgeStyle=orthogonalEdgeStyle;rounded=0;orthogonalLoop=1;jettySize=auto;html=1;fontSize=14;" edge="1" parent="1" source="Y9t75XEt5-iBULSz1cMZ-17" target="Y9t75XEt5-iBULSz1cMZ-19">
          <mxGeometry relative="1" as="geometry" />
        </mxCell>
        <mxCell id="Y9t75XEt5-iBULSz1cMZ-17" value="距离是否达安全值" style="rhombus;whiteSpace=wrap;html=1;rounded=0;" vertex="1" parent="1">
          <mxGeometry x="315" y="470" width="150" height="70" as="geometry" />
        </mxCell>
        <mxCell id="Y9t75XEt5-iBULSz1cMZ-22" value="" style="edgeStyle=orthogonalEdgeStyle;rounded=0;orthogonalLoop=1;jettySize=auto;html=1;fontSize=14;" edge="1" parent="1" source="Y9t75XEt5-iBULSz1cMZ-19" target="Y9t75XEt5-iBULSz1cMZ-21">
          <mxGeometry relative="1" as="geometry" />
        </mxCell>
        <mxCell id="Y9t75XEt5-iBULSz1cMZ-55" style="edgeStyle=orthogonalEdgeStyle;rounded=0;orthogonalLoop=1;jettySize=auto;html=1;exitX=0;exitY=0.5;exitDx=0;exitDy=0;fontSize=14;" edge="1" parent="1" source="Y9t75XEt5-iBULSz1cMZ-19">
          <mxGeometry relative="1" as="geometry">
            <mxPoint x="230.0000000000001" y="585.0689655172414" as="targetPoint" />
          </mxGeometry>
        </mxCell>
        <mxCell id="Y9t75XEt5-iBULSz1cMZ-19" value="距离是否达安全值" style="rhombus;whiteSpace=wrap;html=1;rounded=0;" vertex="1" parent="1">
          <mxGeometry x="315" y="550" width="150" height="70" as="geometry" />
        </mxCell>
        <mxCell id="Y9t75XEt5-iBULSz1cMZ-23" style="edgeStyle=orthogonalEdgeStyle;rounded=0;orthogonalLoop=1;jettySize=auto;html=1;exitX=0.25;exitY=1;exitDx=0;exitDy=0;fontSize=14;entryX=0.5;entryY=0;entryDx=0;entryDy=0;" edge="1" parent="1" source="Y9t75XEt5-iBULSz1cMZ-21" target="Y9t75XEt5-iBULSz1cMZ-24">
          <mxGeometry relative="1" as="geometry">
            <mxPoint x="350" y="740" as="targetPoint" />
          </mxGeometry>
        </mxCell>
        <mxCell id="Y9t75XEt5-iBULSz1cMZ-26" style="edgeStyle=orthogonalEdgeStyle;rounded=0;orthogonalLoop=1;jettySize=auto;html=1;exitX=0.75;exitY=1;exitDx=0;exitDy=0;entryX=0.5;entryY=0;entryDx=0;entryDy=0;fontSize=14;" edge="1" parent="1" source="Y9t75XEt5-iBULSz1cMZ-21" target="Y9t75XEt5-iBULSz1cMZ-25">
          <mxGeometry relative="1" as="geometry" />
        </mxCell>
        <mxCell id="Y9t75XEt5-iBULSz1cMZ-21" value="自动制动装置打开" style="whiteSpace=wrap;html=1;rounded=0;" vertex="1" parent="1">
          <mxGeometry x="320" y="630" width="140" height="40" as="geometry" />
        </mxCell>
        <mxCell id="Y9t75XEt5-iBULSz1cMZ-24" value="停车" style="rounded=0;whiteSpace=wrap;html=1;fontSize=14;" vertex="1" parent="1">
          <mxGeometry x="305" y="700" width="86" height="30" as="geometry" />
        </mxCell>
        <mxCell id="Y9t75XEt5-iBULSz1cMZ-25" value="报警" style="rounded=0;whiteSpace=wrap;html=1;fontSize=14;" vertex="1" parent="1">
          <mxGeometry x="400" y="700" width="86" height="30" as="geometry" />
        </mxCell>
        <mxCell id="Y9t75XEt5-iBULSz1cMZ-36" value="" style="endArrow=classic;html=1;rounded=0;fontSize=14;" edge="1" parent="1">
          <mxGeometry width="50" height="50" relative="1" as="geometry">
            <mxPoint x="230" y="140" as="sourcePoint" />
            <mxPoint x="390" y="140" as="targetPoint" />
          </mxGeometry>
        </mxCell>
        <mxCell id="Y9t75XEt5-iBULSz1cMZ-38" value="" style="endArrow=none;html=1;rounded=0;fontSize=14;" edge="1" parent="1">
          <mxGeometry width="50" height="50" relative="1" as="geometry">
            <mxPoint x="230" y="790" as="sourcePoint" />
            <mxPoint x="230" y="140" as="targetPoint" />
          </mxGeometry>
        </mxCell>
        <mxCell id="Y9t75XEt5-iBULSz1cMZ-41" value="" style="endArrow=none;html=1;rounded=0;fontSize=14;entryX=0.5;entryY=1;entryDx=0;entryDy=0;exitX=0.5;exitY=1;exitDx=0;exitDy=0;" edge="1" parent="1" source="Y9t75XEt5-iBULSz1cMZ-24" target="Y9t75XEt5-iBULSz1cMZ-25">
          <mxGeometry width="50" height="50" relative="1" as="geometry">
            <mxPoint x="370" y="800" as="sourcePoint" />
            <mxPoint x="420" y="750" as="targetPoint" />
            <Array as="points">
              <mxPoint x="348" y="770" />
              <mxPoint x="390" y="770" />
              <mxPoint x="443" y="770" />
            </Array>
          </mxGeometry>
        </mxCell>
        <mxCell id="Y9t75XEt5-iBULSz1cMZ-42" value="" style="endArrow=none;html=1;rounded=0;fontSize=14;" edge="1" parent="1">
          <mxGeometry width="50" height="50" relative="1" as="geometry">
            <mxPoint x="230" y="790" as="sourcePoint" />
            <mxPoint x="400" y="770" as="targetPoint" />
            <Array as="points">
              <mxPoint x="400" y="790" />
            </Array>
          </mxGeometry>
        </mxCell>
        <mxCell id="Y9t75XEt5-iBULSz1cMZ-43" value="" style="endArrow=classic;html=1;rounded=0;fontSize=14;exitX=0;exitY=0.5;exitDx=0;exitDy=0;" edge="1" parent="1" source="Y9t75XEt5-iBULSz1cMZ-7">
          <mxGeometry width="50" height="50" relative="1" as="geometry">
            <mxPoint x="260" y="310" as="sourcePoint" />
            <mxPoint x="230" y="280" as="targetPoint" />
          </mxGeometry>
        </mxCell>
        <mxCell id="Y9t75XEt5-iBULSz1cMZ-44" value="否" style="text;html=1;strokeColor=none;fillColor=none;align=center;verticalAlign=middle;whiteSpace=wrap;rounded=0;fontSize=14;" vertex="1" parent="1">
          <mxGeometry x="245" y="250" width="60" height="30" as="geometry" />
        </mxCell>
        <mxCell id="Y9t75XEt5-iBULSz1cMZ-46" value="是" style="text;html=1;strokeColor=none;fillColor=none;align=center;verticalAlign=middle;whiteSpace=wrap;rounded=0;fontSize=14;" vertex="1" parent="1">
          <mxGeometry x="430" y="300" width="60" height="30" as="geometry" />
        </mxCell>
        <mxCell id="Y9t75XEt5-iBULSz1cMZ-49" value="" style="endArrow=classic;html=1;rounded=0;fontSize=14;" edge="1" parent="1">
          <mxGeometry width="50" height="50" relative="1" as="geometry">
            <mxPoint x="560" y="380" as="sourcePoint" />
            <mxPoint x="390" y="140" as="targetPoint" />
            <Array as="points">
              <mxPoint x="560" y="140" />
            </Array>
          </mxGeometry>
        </mxCell>
        <mxCell id="Y9t75XEt5-iBULSz1cMZ-50" value="否" style="text;html=1;strokeColor=none;fillColor=none;align=center;verticalAlign=middle;whiteSpace=wrap;rounded=0;fontSize=14;" vertex="1" parent="1">
          <mxGeometry x="475" y="350" width="60" height="30" as="geometry" />
        </mxCell>
        <mxCell id="Y9t75XEt5-iBULSz1cMZ-51" value="是" style="text;html=1;strokeColor=none;fillColor=none;align=center;verticalAlign=middle;whiteSpace=wrap;rounded=0;fontSize=14;" vertex="1" parent="1">
          <mxGeometry x="405" y="390" width="60" height="30" as="geometry" />
        </mxCell>
        <mxCell id="Y9t75XEt5-iBULSz1cMZ-53" value="否" style="text;html=1;strokeColor=none;fillColor=none;align=center;verticalAlign=middle;whiteSpace=wrap;rounded=0;fontSize=14;" vertex="1" parent="1">
          <mxGeometry x="240" y="400" width="60" height="30" as="geometry" />
        </mxCell>
        <mxCell id="Y9t75XEt5-iBULSz1cMZ-54" value="是" style="text;html=1;strokeColor=none;fillColor=none;align=center;verticalAlign=middle;whiteSpace=wrap;rounded=0;fontSize=14;" vertex="1" parent="1">
          <mxGeometry x="413" y="530" width="60" height="30" as="geometry" />
        </mxCell>
        <mxCell id="Y9t75XEt5-iBULSz1cMZ-56" value="否" style="text;html=1;strokeColor=none;fillColor=none;align=center;verticalAlign=middle;whiteSpace=wrap;rounded=0;fontSize=14;" vertex="1" parent="1">
          <mxGeometry x="245" y="550" width="60" height="30" as="geometry" />
        </mxCell>
        <mxCell id="Y9t75XEt5-iBULSz1cMZ-57" value="是" style="text;html=1;strokeColor=none;fillColor=none;align=center;verticalAlign=middle;whiteSpace=wrap;rounded=0;fontSize=14;" vertex="1" parent="1">
          <mxGeometry x="413" y="600" width="60" height="30" as="geometry" />
        </mxCell>
      </root>
    </mxGraphModel>
  </diagram>
</mxfile>
